<mxfile host="app.diagrams.net" modified="2023-09-23T04:52:32.032Z" agent="Mozilla/5.0 (Windows NT 10.0; Win64; x64) AppleWebKit/537.36 (KHTML, like Gecko) Chrome/116.0.0.0 Safari/537.36" etag="u_hRMHmEuZA8SlLI3LLs" version="21.8.0" type="device">
  <diagram name="Page-1" id="oTqbDRQruhy7dIhe8cSU">
    <mxGraphModel dx="1600" dy="938" grid="1" gridSize="10" guides="1" tooltips="1" connect="1" arrows="1" fold="1" page="1" pageScale="1" pageWidth="850" pageHeight="1100" background="#ffffff" math="0" shadow="1">
      <root>
        <mxCell id="0" />
        <mxCell id="1" parent="0" />
        <mxCell id="TWCrs9GptkEaWeAisyui-43" value="" style="rounded=1;whiteSpace=wrap;html=1;labelBackgroundColor=none;" parent="1" vertex="1">
          <mxGeometry x="160" y="60" width="120" height="60" as="geometry" />
        </mxCell>
        <mxCell id="TWCrs9GptkEaWeAisyui-44" value="" style="rounded=1;whiteSpace=wrap;html=1;labelBackgroundColor=none;" parent="1" vertex="1">
          <mxGeometry x="360" y="60" width="120" height="60" as="geometry" />
        </mxCell>
        <mxCell id="TWCrs9GptkEaWeAisyui-45" value="" style="rounded=1;whiteSpace=wrap;html=1;labelBackgroundColor=none;" parent="1" vertex="1">
          <mxGeometry x="560" y="60" width="120" height="60" as="geometry" />
        </mxCell>
        <mxCell id="TWCrs9GptkEaWeAisyui-46" value="" style="rounded=1;whiteSpace=wrap;html=1;labelBackgroundColor=none;" parent="1" vertex="1">
          <mxGeometry x="336.25" y="160" width="167.5" height="90" as="geometry" />
        </mxCell>
        <mxCell id="TWCrs9GptkEaWeAisyui-47" value="" style="rounded=1;whiteSpace=wrap;html=1;labelBackgroundColor=none;" parent="1" vertex="1">
          <mxGeometry x="600" y="175" width="120" height="60" as="geometry" />
        </mxCell>
        <mxCell id="TWCrs9GptkEaWeAisyui-48" value="" style="rounded=1;whiteSpace=wrap;html=1;labelBackgroundColor=none;" parent="1" vertex="1">
          <mxGeometry x="120" y="175" width="120" height="60" as="geometry" />
        </mxCell>
        <mxCell id="TWCrs9GptkEaWeAisyui-50" value="" style="rounded=1;whiteSpace=wrap;html=1;labelBackgroundColor=none;" parent="1" vertex="1">
          <mxGeometry x="336.25" y="280" width="167.5" height="90" as="geometry" />
        </mxCell>
        <mxCell id="TWCrs9GptkEaWeAisyui-51" value="" style="rounded=1;whiteSpace=wrap;html=1;labelBackgroundColor=none;" parent="1" vertex="1">
          <mxGeometry x="336.25" y="400" width="167.5" height="90" as="geometry" />
        </mxCell>
        <mxCell id="TWCrs9GptkEaWeAisyui-52" value="" style="rounded=1;whiteSpace=wrap;html=1;labelBackgroundColor=none;" parent="1" vertex="1">
          <mxGeometry x="120" y="295" width="120" height="60" as="geometry" />
        </mxCell>
        <mxCell id="TWCrs9GptkEaWeAisyui-53" value="" style="rounded=1;whiteSpace=wrap;html=1;labelBackgroundColor=none;" parent="1" vertex="1">
          <mxGeometry x="120" y="415" width="120" height="60" as="geometry" />
        </mxCell>
        <mxCell id="TWCrs9GptkEaWeAisyui-54" value="" style="rounded=1;whiteSpace=wrap;html=1;labelBackgroundColor=none;" parent="1" vertex="1">
          <mxGeometry x="120" y="510" width="120" height="60" as="geometry" />
        </mxCell>
        <mxCell id="TWCrs9GptkEaWeAisyui-55" value="" style="rounded=1;whiteSpace=wrap;html=1;labelBackgroundColor=none;" parent="1" vertex="1">
          <mxGeometry x="120" y="830" width="120" height="60" as="geometry" />
        </mxCell>
        <mxCell id="TWCrs9GptkEaWeAisyui-56" value="" style="rounded=1;whiteSpace=wrap;html=1;labelBackgroundColor=none;" parent="1" vertex="1">
          <mxGeometry x="120" y="910" width="120" height="60" as="geometry" />
        </mxCell>
        <mxCell id="TWCrs9GptkEaWeAisyui-57" value="" style="rounded=1;whiteSpace=wrap;html=1;labelBackgroundColor=none;" parent="1" vertex="1">
          <mxGeometry x="120" y="750" width="120" height="60" as="geometry" />
        </mxCell>
        <mxCell id="TWCrs9GptkEaWeAisyui-58" value="" style="rounded=1;whiteSpace=wrap;html=1;labelBackgroundColor=none;" parent="1" vertex="1">
          <mxGeometry x="120" y="670" width="120" height="60" as="geometry" />
        </mxCell>
        <mxCell id="TWCrs9GptkEaWeAisyui-59" value="" style="rounded=1;whiteSpace=wrap;html=1;labelBackgroundColor=none;" parent="1" vertex="1">
          <mxGeometry x="120" y="590" width="120" height="60" as="geometry" />
        </mxCell>
        <mxCell id="TWCrs9GptkEaWeAisyui-60" value="" style="rounded=1;whiteSpace=wrap;html=1;labelBackgroundColor=none;" parent="1" vertex="1">
          <mxGeometry x="600" y="295" width="120" height="60" as="geometry" />
        </mxCell>
        <mxCell id="TWCrs9GptkEaWeAisyui-61" value="" style="rounded=1;whiteSpace=wrap;html=1;labelBackgroundColor=none;" parent="1" vertex="1">
          <mxGeometry x="600" y="415" width="120" height="60" as="geometry" />
        </mxCell>
        <mxCell id="TWCrs9GptkEaWeAisyui-62" value="" style="rounded=1;whiteSpace=wrap;html=1;labelBackgroundColor=none;" parent="1" vertex="1">
          <mxGeometry x="360" y="560" width="120" height="60" as="geometry" />
        </mxCell>
        <mxCell id="TWCrs9GptkEaWeAisyui-63" value="" style="rounded=1;whiteSpace=wrap;html=1;labelBackgroundColor=none;" parent="1" vertex="1">
          <mxGeometry x="360" y="830" width="120" height="60" as="geometry" />
        </mxCell>
        <mxCell id="TWCrs9GptkEaWeAisyui-64" value="" style="rounded=1;whiteSpace=wrap;html=1;labelBackgroundColor=none;" parent="1" vertex="1">
          <mxGeometry x="360" y="750" width="120" height="60" as="geometry" />
        </mxCell>
        <mxCell id="TWCrs9GptkEaWeAisyui-65" value="" style="rounded=1;whiteSpace=wrap;html=1;labelBackgroundColor=none;" parent="1" vertex="1">
          <mxGeometry x="360" y="670" width="120" height="60" as="geometry" />
        </mxCell>
        <mxCell id="TWCrs9GptkEaWeAisyui-66" value="" style="rounded=1;whiteSpace=wrap;html=1;labelBackgroundColor=none;" parent="1" vertex="1">
          <mxGeometry x="600" y="910" width="120" height="60" as="geometry" />
        </mxCell>
        <mxCell id="TWCrs9GptkEaWeAisyui-67" value="" style="rounded=1;whiteSpace=wrap;html=1;labelBackgroundColor=none;" parent="1" vertex="1">
          <mxGeometry x="600" y="750" width="120" height="60" as="geometry" />
        </mxCell>
        <mxCell id="TWCrs9GptkEaWeAisyui-68" value="" style="endArrow=classic;html=1;rounded=1;entryX=0.5;entryY=1;entryDx=0;entryDy=0;exitX=0.5;exitY=0;exitDx=0;exitDy=0;flowAnimation=1;labelBackgroundColor=none;fontColor=default;" parent="1" source="TWCrs9GptkEaWeAisyui-52" target="TWCrs9GptkEaWeAisyui-48" edge="1">
          <mxGeometry width="50" height="50" relative="1" as="geometry">
            <mxPoint x="170" y="290" as="sourcePoint" />
            <mxPoint x="180" y="250" as="targetPoint" />
            <Array as="points">
              <mxPoint x="180" y="270" />
            </Array>
          </mxGeometry>
        </mxCell>
        <mxCell id="TWCrs9GptkEaWeAisyui-69" value="" style="endArrow=classic;html=1;rounded=1;entryX=0.5;entryY=0;entryDx=0;entryDy=0;flowAnimation=1;labelBackgroundColor=none;fontColor=default;" parent="1" target="TWCrs9GptkEaWeAisyui-53" edge="1">
          <mxGeometry width="50" height="50" relative="1" as="geometry">
            <mxPoint x="179.75" y="355" as="sourcePoint" />
            <mxPoint x="180" y="410" as="targetPoint" />
          </mxGeometry>
        </mxCell>
        <mxCell id="TWCrs9GptkEaWeAisyui-70" value="" style="endArrow=none;html=1;rounded=1;flowAnimation=1;labelBackgroundColor=none;fontColor=default;" parent="1" edge="1">
          <mxGeometry width="50" height="50" relative="1" as="geometry">
            <mxPoint x="280" y="940" as="sourcePoint" />
            <mxPoint x="280" y="340" as="targetPoint" />
            <Array as="points">
              <mxPoint x="280" y="370" />
              <mxPoint x="280" y="340" />
            </Array>
          </mxGeometry>
        </mxCell>
        <mxCell id="TWCrs9GptkEaWeAisyui-71" value="" style="endArrow=classic;html=1;rounded=1;strokeWidth=1;targetPerimeterSpacing=0;flowAnimation=1;labelBackgroundColor=none;fontColor=default;" parent="1" edge="1">
          <mxGeometry width="50" height="50" relative="1" as="geometry">
            <mxPoint x="280" y="940" as="sourcePoint" />
            <mxPoint x="239.9999999999999" y="939.9999999999998" as="targetPoint" />
          </mxGeometry>
        </mxCell>
        <mxCell id="TWCrs9GptkEaWeAisyui-72" value="" style="endArrow=classic;html=1;rounded=1;flowAnimation=1;labelBackgroundColor=none;fontColor=default;" parent="1" edge="1">
          <mxGeometry width="50" height="50" relative="1" as="geometry">
            <mxPoint x="280" y="340" as="sourcePoint" />
            <mxPoint x="239.9999999999999" y="339.9999999999998" as="targetPoint" />
          </mxGeometry>
        </mxCell>
        <mxCell id="TWCrs9GptkEaWeAisyui-75" value="" style="endArrow=classic;html=1;rounded=1;flowAnimation=1;labelBackgroundColor=none;fontColor=default;" parent="1" edge="1">
          <mxGeometry width="50" height="50" relative="1" as="geometry">
            <mxPoint x="280" y="320" as="sourcePoint" />
            <mxPoint x="239.9999999999999" y="319.9999999999998" as="targetPoint" />
          </mxGeometry>
        </mxCell>
        <mxCell id="TWCrs9GptkEaWeAisyui-76" value="" style="endArrow=classic;html=1;rounded=1;exitX=0;exitY=0.5;exitDx=0;exitDy=0;flowAnimation=1;labelBackgroundColor=none;fontColor=default;" parent="1" source="TWCrs9GptkEaWeAisyui-46" edge="1">
          <mxGeometry width="50" height="50" relative="1" as="geometry">
            <mxPoint x="280" y="204.93" as="sourcePoint" />
            <mxPoint x="239.9999999999999" y="204.92999999999978" as="targetPoint" />
            <Array as="points">
              <mxPoint x="260" y="204.93" />
            </Array>
          </mxGeometry>
        </mxCell>
        <mxCell id="TWCrs9GptkEaWeAisyui-77" value="" style="endArrow=none;html=1;rounded=1;flowAnimation=1;labelBackgroundColor=none;fontColor=default;" parent="1" edge="1">
          <mxGeometry width="50" height="50" relative="1" as="geometry">
            <mxPoint x="280" y="320" as="sourcePoint" />
            <mxPoint x="280" y="205" as="targetPoint" />
          </mxGeometry>
        </mxCell>
        <mxCell id="TWCrs9GptkEaWeAisyui-78" value="" style="endArrow=classic;html=1;rounded=1;exitX=0;exitY=0.5;exitDx=0;exitDy=0;flowAnimation=1;labelBackgroundColor=none;fontColor=default;" parent="1" edge="1">
          <mxGeometry width="50" height="50" relative="1" as="geometry">
            <mxPoint x="336" y="444.99" as="sourcePoint" />
            <mxPoint x="239.9999999999999" y="444.9199999999998" as="targetPoint" />
            <Array as="points">
              <mxPoint x="260" y="444.92" />
            </Array>
          </mxGeometry>
        </mxCell>
        <mxCell id="TWCrs9GptkEaWeAisyui-80" value="" style="endArrow=classic;html=1;rounded=1;flowAnimation=1;labelBackgroundColor=none;fontColor=default;" parent="1" edge="1">
          <mxGeometry width="50" height="50" relative="1" as="geometry">
            <mxPoint x="280" y="540" as="sourcePoint" />
            <mxPoint x="240.2499999999999" y="539.6399999999998" as="targetPoint" />
            <Array as="points">
              <mxPoint x="260.25" y="539.64" />
            </Array>
          </mxGeometry>
        </mxCell>
        <mxCell id="TWCrs9GptkEaWeAisyui-81" value="" style="endArrow=classic;html=1;rounded=1;flowAnimation=1;labelBackgroundColor=none;fontColor=default;" parent="1" edge="1">
          <mxGeometry width="50" height="50" relative="1" as="geometry">
            <mxPoint x="279.75" y="620.36" as="sourcePoint" />
            <mxPoint x="239.9999999999999" y="619.9999999999998" as="targetPoint" />
            <Array as="points">
              <mxPoint x="260" y="620" />
            </Array>
          </mxGeometry>
        </mxCell>
        <mxCell id="TWCrs9GptkEaWeAisyui-85" value="" style="endArrow=classic;startArrow=classic;html=1;rounded=1;entryX=0;entryY=0.5;entryDx=0;entryDy=0;flowAnimation=1;labelBackgroundColor=none;fontColor=default;" parent="1" target="TWCrs9GptkEaWeAisyui-65" edge="1">
          <mxGeometry width="50" height="50" relative="1" as="geometry">
            <mxPoint x="240" y="699.68" as="sourcePoint" />
            <mxPoint x="310" y="699.68" as="targetPoint" />
          </mxGeometry>
        </mxCell>
        <mxCell id="TWCrs9GptkEaWeAisyui-86" value="" style="endArrow=classic;startArrow=classic;html=1;rounded=1;entryX=0;entryY=0.5;entryDx=0;entryDy=0;flowAnimation=1;labelBackgroundColor=none;fontColor=default;" parent="1" edge="1">
          <mxGeometry width="50" height="50" relative="1" as="geometry">
            <mxPoint x="240" y="779.68" as="sourcePoint" />
            <mxPoint x="360" y="780" as="targetPoint" />
          </mxGeometry>
        </mxCell>
        <mxCell id="TWCrs9GptkEaWeAisyui-87" value="" style="endArrow=classic;startArrow=classic;html=1;rounded=1;entryX=0;entryY=0.5;entryDx=0;entryDy=0;flowAnimation=1;labelBackgroundColor=none;fontColor=default;" parent="1" edge="1">
          <mxGeometry width="50" height="50" relative="1" as="geometry">
            <mxPoint x="240" y="859.68" as="sourcePoint" />
            <mxPoint x="360" y="860" as="targetPoint" />
          </mxGeometry>
        </mxCell>
        <mxCell id="TWCrs9GptkEaWeAisyui-88" value="" style="endArrow=classic;html=1;rounded=1;entryX=0.5;entryY=1;entryDx=0;entryDy=0;flowAnimation=1;labelBackgroundColor=none;fontColor=default;" parent="1" edge="1">
          <mxGeometry width="50" height="50" relative="1" as="geometry">
            <mxPoint x="425" y="160" as="sourcePoint" />
            <mxPoint x="425" y="120" as="targetPoint" />
            <Array as="points">
              <mxPoint x="425" y="155" />
            </Array>
          </mxGeometry>
        </mxCell>
        <mxCell id="TWCrs9GptkEaWeAisyui-89" value="" style="endArrow=none;html=1;rounded=1;flowAnimation=1;labelBackgroundColor=none;fontColor=default;" parent="1" edge="1">
          <mxGeometry width="50" height="50" relative="1" as="geometry">
            <mxPoint x="220" y="140" as="sourcePoint" />
            <mxPoint x="640" y="140" as="targetPoint" />
          </mxGeometry>
        </mxCell>
        <mxCell id="TWCrs9GptkEaWeAisyui-90" value="" style="endArrow=classic;html=1;rounded=1;flowAnimation=1;labelBackgroundColor=none;fontColor=default;" parent="1" edge="1">
          <mxGeometry width="50" height="50" relative="1" as="geometry">
            <mxPoint x="640" y="140" as="sourcePoint" />
            <mxPoint x="640" y="120" as="targetPoint" />
            <Array as="points">
              <mxPoint x="640" y="135" />
            </Array>
          </mxGeometry>
        </mxCell>
        <mxCell id="TWCrs9GptkEaWeAisyui-91" value="" style="endArrow=classic;html=1;rounded=1;flowAnimation=1;labelBackgroundColor=none;fontColor=default;" parent="1" edge="1">
          <mxGeometry width="50" height="50" relative="1" as="geometry">
            <mxPoint x="219.91" y="140" as="sourcePoint" />
            <mxPoint x="220" y="120" as="targetPoint" />
            <Array as="points">
              <mxPoint x="219.91" y="135" />
            </Array>
          </mxGeometry>
        </mxCell>
        <mxCell id="TWCrs9GptkEaWeAisyui-92" value="" style="endArrow=classic;html=1;rounded=1;exitX=1;exitY=0.5;exitDx=0;exitDy=0;flowAnimation=1;labelBackgroundColor=none;fontColor=default;" parent="1" source="TWCrs9GptkEaWeAisyui-46" edge="1">
          <mxGeometry width="50" height="50" relative="1" as="geometry">
            <mxPoint x="590" y="205.19" as="sourcePoint" />
            <mxPoint x="599.9999999999999" y="204.81999999999977" as="targetPoint" />
            <Array as="points">
              <mxPoint x="560" y="205" />
            </Array>
          </mxGeometry>
        </mxCell>
        <mxCell id="TWCrs9GptkEaWeAisyui-93" value="" style="endArrow=none;html=1;rounded=1;flowAnimation=1;labelBackgroundColor=none;fontColor=default;" parent="1" edge="1">
          <mxGeometry width="50" height="50" relative="1" as="geometry">
            <mxPoint x="560" y="320" as="sourcePoint" />
            <mxPoint x="560" y="205" as="targetPoint" />
          </mxGeometry>
        </mxCell>
        <mxCell id="TWCrs9GptkEaWeAisyui-95" value="" style="endArrow=classic;html=1;rounded=1;flowAnimation=1;labelBackgroundColor=none;fontColor=default;" parent="1" edge="1">
          <mxGeometry width="50" height="50" relative="1" as="geometry">
            <mxPoint x="560" y="320" as="sourcePoint" />
            <mxPoint x="599" y="320" as="targetPoint" />
            <Array as="points">
              <mxPoint x="563" y="320.09000000000003" />
            </Array>
          </mxGeometry>
        </mxCell>
        <mxCell id="TWCrs9GptkEaWeAisyui-96" value="" style="endArrow=classic;html=1;rounded=1;exitX=1;exitY=0.5;exitDx=0;exitDy=0;flowAnimation=1;labelBackgroundColor=none;fontColor=default;" parent="1" edge="1">
          <mxGeometry width="50" height="50" relative="1" as="geometry">
            <mxPoint x="503.75" y="444.73" as="sourcePoint" />
            <mxPoint x="599.7499999999999" y="444.5499999999997" as="targetPoint" />
            <Array as="points">
              <mxPoint x="559.75" y="444.73" />
            </Array>
          </mxGeometry>
        </mxCell>
        <mxCell id="TWCrs9GptkEaWeAisyui-97" value="" style="endArrow=none;html=1;rounded=1;flowAnimation=1;labelBackgroundColor=none;fontColor=default;" parent="1" edge="1">
          <mxGeometry width="50" height="50" relative="1" as="geometry">
            <mxPoint x="560" y="445" as="sourcePoint" />
            <mxPoint x="560" y="340" as="targetPoint" />
          </mxGeometry>
        </mxCell>
        <mxCell id="TWCrs9GptkEaWeAisyui-98" value="" style="endArrow=classic;html=1;rounded=1;flowAnimation=1;labelBackgroundColor=none;fontColor=default;" parent="1" edge="1">
          <mxGeometry width="50" height="50" relative="1" as="geometry">
            <mxPoint x="560" y="340" as="sourcePoint" />
            <mxPoint x="599" y="340" as="targetPoint" />
            <Array as="points">
              <mxPoint x="563" y="340.09000000000003" />
            </Array>
          </mxGeometry>
        </mxCell>
        <mxCell id="TWCrs9GptkEaWeAisyui-99" value="" style="endArrow=none;html=1;rounded=1;flowAnimation=1;labelBackgroundColor=none;fontColor=default;" parent="1" edge="1">
          <mxGeometry width="50" height="50" relative="1" as="geometry">
            <mxPoint x="480" y="590" as="sourcePoint" />
            <mxPoint x="660" y="590" as="targetPoint" />
          </mxGeometry>
        </mxCell>
        <mxCell id="TWCrs9GptkEaWeAisyui-100" value="" style="endArrow=classic;html=1;rounded=1;entryX=0.5;entryY=1;entryDx=0;entryDy=0;flowAnimation=1;labelBackgroundColor=none;fontColor=default;" parent="1" target="TWCrs9GptkEaWeAisyui-61" edge="1">
          <mxGeometry width="50" height="50" relative="1" as="geometry">
            <mxPoint x="659.44" y="590" as="sourcePoint" />
            <mxPoint x="659.44" y="550" as="targetPoint" />
            <Array as="points">
              <mxPoint x="659.44" y="585" />
            </Array>
          </mxGeometry>
        </mxCell>
        <mxCell id="TWCrs9GptkEaWeAisyui-101" value="" style="endArrow=classic;html=1;rounded=1;entryX=0.532;entryY=-0.027;entryDx=0;entryDy=0;entryPerimeter=0;flowAnimation=1;labelBackgroundColor=none;fontColor=default;" parent="1" target="TWCrs9GptkEaWeAisyui-62" edge="1">
          <mxGeometry width="50" height="50" relative="1" as="geometry">
            <mxPoint x="424" y="490" as="sourcePoint" />
            <mxPoint x="424.25" y="550" as="targetPoint" />
          </mxGeometry>
        </mxCell>
        <mxCell id="TWCrs9GptkEaWeAisyui-103" value="" style="endArrow=classic;html=1;rounded=1;entryX=0.5;entryY=1;entryDx=0;entryDy=0;flowAnimation=1;labelBackgroundColor=none;fontColor=default;" parent="1" edge="1">
          <mxGeometry width="50" height="50" relative="1" as="geometry">
            <mxPoint x="424" y="280" as="sourcePoint" />
            <mxPoint x="424" y="250" as="targetPoint" />
            <Array as="points" />
          </mxGeometry>
        </mxCell>
        <mxCell id="TWCrs9GptkEaWeAisyui-104" value="" style="endArrow=classic;html=1;rounded=1;flowAnimation=1;labelBackgroundColor=none;fontColor=default;" parent="1" edge="1">
          <mxGeometry width="50" height="50" relative="1" as="geometry">
            <mxPoint x="425" y="370" as="sourcePoint" />
            <mxPoint x="425" y="400" as="targetPoint" />
          </mxGeometry>
        </mxCell>
        <mxCell id="TWCrs9GptkEaWeAisyui-106" value="" style="endArrow=classic;html=1;rounded=1;flowAnimation=1;labelBackgroundColor=none;fontColor=default;" parent="1" edge="1">
          <mxGeometry width="50" height="50" relative="1" as="geometry">
            <mxPoint x="560" y="850" as="sourcePoint" />
            <mxPoint x="479.9999999999999" y="849.9999999999998" as="targetPoint" />
            <Array as="points">
              <mxPoint x="500" y="850" />
            </Array>
          </mxGeometry>
        </mxCell>
        <mxCell id="TWCrs9GptkEaWeAisyui-107" value="" style="endArrow=none;html=1;rounded=1;flowAnimation=1;labelBackgroundColor=none;fontColor=default;" parent="1" edge="1">
          <mxGeometry width="50" height="50" relative="1" as="geometry">
            <mxPoint x="560" y="590" as="sourcePoint" />
            <mxPoint x="560" y="850" as="targetPoint" />
          </mxGeometry>
        </mxCell>
        <mxCell id="TWCrs9GptkEaWeAisyui-108" value="" style="endArrow=classic;html=1;rounded=1;flowAnimation=1;labelBackgroundColor=none;fontColor=default;" parent="1" edge="1">
          <mxGeometry width="50" height="50" relative="1" as="geometry">
            <mxPoint x="560" y="700" as="sourcePoint" />
            <mxPoint x="479.9999999999999" y="699.1699999999997" as="targetPoint" />
            <Array as="points">
              <mxPoint x="500" y="699.17" />
            </Array>
          </mxGeometry>
        </mxCell>
        <mxCell id="TWCrs9GptkEaWeAisyui-109" value="" style="endArrow=classic;html=1;rounded=1;flowAnimation=1;labelBackgroundColor=none;fontColor=default;" parent="1" edge="1">
          <mxGeometry width="50" height="50" relative="1" as="geometry">
            <mxPoint x="560" y="779.38" as="sourcePoint" />
            <mxPoint x="600" y="780" as="targetPoint" />
            <Array as="points">
              <mxPoint x="570" y="779.3799999999999" />
            </Array>
          </mxGeometry>
        </mxCell>
        <mxCell id="TWCrs9GptkEaWeAisyui-111" value="" style="endArrow=classic;html=1;rounded=1;flowAnimation=1;labelBackgroundColor=none;fontColor=default;" parent="1" edge="1">
          <mxGeometry width="50" height="50" relative="1" as="geometry">
            <mxPoint x="420" y="940.5" as="sourcePoint" />
            <mxPoint x="600" y="940.12" as="targetPoint" />
            <Array as="points">
              <mxPoint x="570" y="939.4999999999999" />
            </Array>
          </mxGeometry>
        </mxCell>
        <mxCell id="TWCrs9GptkEaWeAisyui-112" value="" style="endArrow=none;html=1;rounded=1;entryX=0.5;entryY=1;entryDx=0;entryDy=0;flowAnimation=1;labelBackgroundColor=none;fontColor=default;" parent="1" target="TWCrs9GptkEaWeAisyui-63" edge="1">
          <mxGeometry width="50" height="50" relative="1" as="geometry">
            <mxPoint x="420" y="941" as="sourcePoint" />
            <mxPoint x="450" y="900" as="targetPoint" />
          </mxGeometry>
        </mxCell>
        <mxCell id="TWCrs9GptkEaWeAisyui-113" value="&lt;font style=&quot;font-size: 17px;&quot;&gt;.onion&lt;br&gt;URL&lt;/font&gt;" style="text;html=1;align=center;verticalAlign=middle;whiteSpace=wrap;rounded=1;labelBackgroundColor=none;" parent="1" vertex="1">
          <mxGeometry x="177.5" y="72" width="85" height="36" as="geometry" />
        </mxCell>
        <mxCell id="TWCrs9GptkEaWeAisyui-114" value="&lt;span style=&quot;font-size: 17px;&quot;&gt;Source Code&lt;/span&gt;" style="text;html=1;align=center;verticalAlign=middle;whiteSpace=wrap;rounded=1;labelBackgroundColor=none;" parent="1" vertex="1">
          <mxGeometry x="377.5" y="72" width="85" height="36" as="geometry" />
        </mxCell>
        <mxCell id="TWCrs9GptkEaWeAisyui-115" value="&lt;span style=&quot;font-size: 17px;&quot;&gt;Favicon&lt;/span&gt;" style="text;html=1;align=center;verticalAlign=middle;whiteSpace=wrap;rounded=1;labelBackgroundColor=none;" parent="1" vertex="1">
          <mxGeometry x="577.5" y="72" width="85" height="36" as="geometry" />
        </mxCell>
        <mxCell id="TWCrs9GptkEaWeAisyui-116" value="&lt;span style=&quot;font-size: 17px;&quot;&gt;HTTP&lt;br&gt;Headers&lt;br&gt;&lt;/span&gt;" style="text;html=1;align=center;verticalAlign=middle;whiteSpace=wrap;rounded=1;labelBackgroundColor=none;" parent="1" vertex="1">
          <mxGeometry x="617.5" y="187" width="85" height="36" as="geometry" />
        </mxCell>
        <mxCell id="TWCrs9GptkEaWeAisyui-117" value="&lt;span style=&quot;font-size: 16px;&quot;&gt;Cryptocurrency&lt;br&gt;Wallet&lt;br&gt;&lt;/span&gt;" style="text;html=1;align=center;verticalAlign=middle;whiteSpace=wrap;rounded=1;labelBackgroundColor=none;" parent="1" vertex="1">
          <mxGeometry x="617.5" y="307" width="85" height="36" as="geometry" />
        </mxCell>
        <mxCell id="TWCrs9GptkEaWeAisyui-118" value="&lt;span style=&quot;font-size: 16px;&quot;&gt;Review&lt;br&gt;&lt;/span&gt;" style="text;html=1;align=center;verticalAlign=middle;whiteSpace=wrap;rounded=1;labelBackgroundColor=none;" parent="1" vertex="1">
          <mxGeometry x="617.5" y="427" width="85" height="36" as="geometry" />
        </mxCell>
        <mxCell id="TWCrs9GptkEaWeAisyui-119" value="&lt;font style=&quot;font-size: 17px;&quot;&gt;Product Description&lt;/font&gt;" style="text;html=1;align=center;verticalAlign=middle;whiteSpace=wrap;rounded=1;labelBackgroundColor=none;" parent="1" vertex="1">
          <mxGeometry x="617.5" y="762" width="85" height="36" as="geometry" />
        </mxCell>
        <mxCell id="TWCrs9GptkEaWeAisyui-121" value="&lt;font style=&quot;font-size: 17px;&quot;&gt;Photo Metadata&lt;/font&gt;" style="text;html=1;align=center;verticalAlign=middle;whiteSpace=wrap;rounded=1;labelBackgroundColor=none;" parent="1" vertex="1">
          <mxGeometry x="617.5" y="922" width="85" height="36" as="geometry" />
        </mxCell>
        <mxCell id="TWCrs9GptkEaWeAisyui-122" value="&lt;font style=&quot;font-size: 22px;&quot;&gt;Marketplace&lt;/font&gt;" style="text;html=1;align=center;verticalAlign=middle;whiteSpace=wrap;rounded=1;labelBackgroundColor=none;" parent="1" vertex="1">
          <mxGeometry x="377.5" y="187" width="85" height="36" as="geometry" />
        </mxCell>
        <mxCell id="TWCrs9GptkEaWeAisyui-123" value="&lt;font style=&quot;font-size: 22px;&quot;&gt;Dark Web Marketplace (Start)&lt;/font&gt;" style="text;html=1;align=center;verticalAlign=middle;whiteSpace=wrap;rounded=1;labelBackgroundColor=none;" parent="1" vertex="1">
          <mxGeometry x="377.5" y="307" width="85" height="36" as="geometry" />
        </mxCell>
        <mxCell id="TWCrs9GptkEaWeAisyui-124" value="&lt;font style=&quot;font-size: 22px;&quot;&gt;Vendor&lt;/font&gt;" style="text;html=1;align=center;verticalAlign=middle;whiteSpace=wrap;rounded=1;labelBackgroundColor=none;" parent="1" vertex="1">
          <mxGeometry x="377.5" y="427" width="85" height="36" as="geometry" />
        </mxCell>
        <mxCell id="TWCrs9GptkEaWeAisyui-125" value="&lt;font style=&quot;font-size: 22px;&quot;&gt;Product&lt;/font&gt;" style="text;html=1;align=center;verticalAlign=middle;whiteSpace=wrap;rounded=1;labelBackgroundColor=none;" parent="1" vertex="1">
          <mxGeometry x="377.5" y="572" width="85" height="36" as="geometry" />
        </mxCell>
        <mxCell id="TWCrs9GptkEaWeAisyui-126" value="&lt;font style=&quot;font-size: 17px;&quot;&gt;# Of Sales&lt;/font&gt;" style="text;html=1;align=center;verticalAlign=middle;whiteSpace=wrap;rounded=1;labelBackgroundColor=none;" parent="1" vertex="1">
          <mxGeometry x="377.5" y="682" width="85" height="36" as="geometry" />
        </mxCell>
        <mxCell id="TWCrs9GptkEaWeAisyui-128" value="&lt;font style=&quot;font-size: 17px;&quot;&gt;Store Description&lt;/font&gt;" style="text;html=1;align=center;verticalAlign=middle;whiteSpace=wrap;rounded=1;strokeWidth=1;labelBackgroundColor=none;" parent="1" vertex="1">
          <mxGeometry x="377.5" y="762" width="85" height="36" as="geometry" />
        </mxCell>
        <mxCell id="TWCrs9GptkEaWeAisyui-129" value="&lt;font style=&quot;font-size: 17px;&quot;&gt;Photo&lt;/font&gt;" style="text;html=1;align=center;verticalAlign=middle;whiteSpace=wrap;rounded=1;strokeWidth=1;labelBackgroundColor=none;" parent="1" vertex="1">
          <mxGeometry x="377.5" y="842" width="85" height="36" as="geometry" />
        </mxCell>
        <mxCell id="TWCrs9GptkEaWeAisyui-131" value="&lt;div style=&quot;text-align: center;&quot;&gt;&lt;font&gt;&lt;span style=&quot;font-size: 17px;&quot;&gt;PGP Key&lt;/span&gt;&lt;/font&gt;&lt;/div&gt;" style="text;whiteSpace=wrap;html=1;labelBackgroundColor=none;rounded=1;" parent="1" vertex="1">
          <mxGeometry x="142" y="310" width="76" height="33" as="geometry" />
        </mxCell>
        <mxCell id="TWCrs9GptkEaWeAisyui-132" value="&lt;div style=&quot;text-align: center;&quot;&gt;&lt;span style=&quot;background-color: initial; font-size: 17px;&quot;&gt;Email&lt;/span&gt;&lt;/div&gt;" style="text;whiteSpace=wrap;html=1;labelBackgroundColor=none;rounded=1;" parent="1" vertex="1">
          <mxGeometry x="153.5" y="428.5" width="53" height="33" as="geometry" />
        </mxCell>
        <mxCell id="TWCrs9GptkEaWeAisyui-133" value="&lt;div style=&quot;text-align: center;&quot;&gt;&lt;span style=&quot;background-color: initial; font-size: 17px;&quot;&gt;Username&lt;/span&gt;&lt;/div&gt;" style="text;whiteSpace=wrap;html=1;labelBackgroundColor=none;rounded=1;" parent="1" vertex="1">
          <mxGeometry x="140.25" y="522" width="79.5" height="32.5" as="geometry" />
        </mxCell>
        <mxCell id="TWCrs9GptkEaWeAisyui-134" value="&lt;div style=&quot;text-align: center;&quot;&gt;&lt;span style=&quot;background-color: initial; font-size: 17px;&quot;&gt;Join Date&lt;/span&gt;&lt;/div&gt;" style="text;whiteSpace=wrap;html=1;labelBackgroundColor=none;rounded=1;" parent="1" vertex="1">
          <mxGeometry x="140.25" y="603.75" width="79.5" height="32.25" as="geometry" />
        </mxCell>
        <mxCell id="TWCrs9GptkEaWeAisyui-135" value="&lt;div style=&quot;text-align: center;&quot;&gt;&lt;span style=&quot;font-size: 17px;&quot;&gt;Location&lt;/span&gt;&lt;/div&gt;" style="text;whiteSpace=wrap;html=1;labelBackgroundColor=none;rounded=1;" parent="1" vertex="1">
          <mxGeometry x="145.5" y="683.88" width="69" height="32.25" as="geometry" />
        </mxCell>
        <mxCell id="TWCrs9GptkEaWeAisyui-137" value="&lt;div style=&quot;text-align: center;&quot;&gt;&lt;span style=&quot;font-size: 17px;&quot;&gt;Contact Information&lt;/span&gt;&lt;/div&gt;" style="text;whiteSpace=wrap;html=1;labelBackgroundColor=none;rounded=1;" parent="1" vertex="1">
          <mxGeometry x="135.5" y="754" width="89" height="52" as="geometry" />
        </mxCell>
        <mxCell id="TWCrs9GptkEaWeAisyui-138" value="&lt;div style=&quot;text-align: center;&quot;&gt;&lt;span style=&quot;font-size: 17px;&quot;&gt;Shipping Information&lt;/span&gt;&lt;/div&gt;" style="text;whiteSpace=wrap;html=1;labelBackgroundColor=none;rounded=1;" parent="1" vertex="1">
          <mxGeometry x="135.5" y="834" width="89" height="52" as="geometry" />
        </mxCell>
        <mxCell id="TWCrs9GptkEaWeAisyui-139" value="&lt;div style=&quot;text-align: center;&quot;&gt;&lt;span style=&quot;font-size: 17px;&quot;&gt;Forum Posts&lt;/span&gt;&lt;/div&gt;" style="text;whiteSpace=wrap;html=1;labelBackgroundColor=none;rounded=1;" parent="1" vertex="1">
          <mxGeometry x="135.5" y="914" width="89" height="52" as="geometry" />
        </mxCell>
        <mxCell id="KkrAx1MgELYFZaTLFjF1-1" value="&lt;span style=&quot;font-size: 17px;&quot;&gt;Email&lt;/span&gt;" style="text;html=1;align=center;verticalAlign=middle;whiteSpace=wrap;rounded=1;labelBackgroundColor=none;" vertex="1" parent="1">
          <mxGeometry x="137.5" y="187" width="85" height="36" as="geometry" />
        </mxCell>
      </root>
    </mxGraphModel>
  </diagram>
</mxfile>
